<svg width="1440" height="960" viewBox="0 0 1440 960" fill="none" xmlns="http://www.w3.org/2000/svg">
<g clip-path="url(#clip0_19_74)">
<g style="mix-blend-mode:darken">
<path d="M295.312 1316.55C408.891 1161.33 414.509 951.938 299.424 881.278C155.567 792.952 92.5001 953 143.293 1017.94C167.989 1049.51 235.785 1080.5 278.131 1038.53C352.666 964.655 358.518 820.168 201.46 741.994C75.8138 679.456 -29.6467 675.682 -195.286 750.961" stroke="#1A62C6" stroke-width="39"/>
</g>
<path d="M484.915 -136.02C447.915 -49.0196 324.907 80.5222 176.434 48.328C120.564 27.7364 76.5186 -30.5298 127.886 -55.4067C179.253 -80.2837 226.305 28.7352 152.931 80.8066C79.5578 132.878 -5.96785 -38.5114 -90.4285 -15.2657C-174.889 7.98009 -147.033 107.025 -95.2382 126.437" stroke="#EC0B43" stroke-width="39"/>
<path fill-rule="evenodd" clip-rule="evenodd" d="M156.377 -76.6184C160.041 -98.1899 158.411 -124.488 151.324 -151.483L189.046 -161.386C198.838 -124.086 200.505 -84.7522 190.693 -52.3753C184.193 -61.0512 172.482 -72.1649 156.377 -76.6184ZM168.221 -11.615C155.58 2.12763 138.523 11.7862 116.636 14.6895C94.9609 17.5647 75.0793 9.373 58.7113 -2.06077C42.2863 -13.5343 27.5967 -29.4778 15.3049 -45.7418C-8.95338 -77.8393 -27.0537 -115.54 -31.4998 -133.279L6.33005 -142.76C9.12492 -131.609 24.2235 -98.624 46.4185 -69.2565C57.3534 -54.788 69.2041 -42.3041 81.0451 -34.0327C92.943 -25.7214 103.053 -22.8504 111.508 -23.9718C123.783 -25.6002 133.549 -30.8937 140.962 -39.6162C148.087 -40.3985 160.429 -35.525 168.221 -11.615Z" fill="#F3BE22"/>
<path d="M399.794 -97.7636C359.246 -56.7111 320.038 42.7614 487.592 112.232" stroke="#F3BE22" stroke-width="39"/>
<path fill-rule="evenodd" clip-rule="evenodd" d="M512.526 99.3076C503.453 96.5125 490.765 91.8519 483.589 89.1013L469.399 125.632C482.655 131.839 482.936 131.042 493.338 134.529C497.401 135.891 501.934 137.179 505.608 138.336C513.691 140.883 520.383 142.991 523.703 144.91C538.428 153.424 549.454 154.768 552.071 150.318C553.59 147.735 551.986 145.662 551.359 144.851C551.316 144.796 551.278 144.747 551.246 144.704C551.443 144.684 551.651 144.669 551.868 144.653C553.322 144.549 555.139 144.418 556.416 142.613C558.237 140.038 557.506 138.862 556.2 136.757L556.173 136.715C558.193 137.347 561.214 133.951 561.213 131.374C561.211 127.412 546.725 118.985 538.033 113.928C536.203 112.864 534.63 111.949 533.503 111.256C533.576 110.91 535.146 109.916 537.103 108.678C538.186 107.993 539.388 107.232 540.521 106.465C542.072 105.414 542.945 104.831 544.258 103.82C555.408 95.2309 548.533 84.3767 535.192 93.7748C527.735 98.2044 523.881 98.1695 512.526 99.3076Z" fill="#F3BE22"/>
<path fill-rule="evenodd" clip-rule="evenodd" d="M557.206 136.549C557.235 137.111 556.804 137.59 556.242 137.62C555.652 137.651 554.953 137.485 554.251 137.254C553.521 137.013 552.675 136.662 551.749 136.234C549.895 135.378 547.645 134.178 545.236 132.836C543.292 131.754 541.248 130.582 539.21 129.413C536.155 127.661 533.11 125.915 530.424 124.484C530.389 124.465 530.356 124.445 530.324 124.423C530.158 124.553 529.988 124.672 529.822 124.788C529.781 124.816 529.74 124.845 529.699 124.874C529.239 125.197 528.604 125.087 528.28 124.627C527.956 124.167 528.067 123.532 528.527 123.208C529.123 122.788 529.302 122.657 529.439 122.458C529.566 122.273 529.705 121.942 529.85 121.025C529.937 120.469 530.458 120.09 531.014 120.177C531.57 120.265 531.949 120.786 531.862 121.342C531.775 121.891 531.676 122.36 531.535 122.768C534.201 124.193 537.25 125.941 540.277 127.677C542.311 128.843 544.335 130.003 546.227 131.056C548.627 132.393 550.822 133.562 552.603 134.385C553.494 134.797 554.262 135.113 554.889 135.319C555.543 135.535 555.942 135.596 556.135 135.586C556.697 135.556 557.176 135.988 557.206 136.549ZM516.766 122.327C513.293 121.991 510.212 120.24 508.292 118.26C507.9 117.856 507.91 117.211 508.314 116.819C508.718 116.428 509.363 116.438 509.755 116.842C511.375 118.513 514.021 120.015 516.962 120.3C519.853 120.58 523.088 119.694 526.013 116.498C526.393 116.083 527.037 116.054 527.452 116.434C527.867 116.814 527.896 117.458 527.516 117.873C524.154 121.546 520.288 122.669 516.766 122.327ZM550.963 145.882C551.519 145.968 552.039 145.587 552.125 145.031C552.211 144.475 551.83 143.955 551.274 143.869C550.194 143.701 548.471 143.118 546.33 142.217C544.214 141.327 541.767 140.162 539.27 138.883C534.451 136.416 529.498 133.555 526.429 131.489C526.526 131.323 526.611 131.151 526.682 130.975C526.879 130.482 526.995 129.856 526.758 129.224C526.56 128.697 525.972 128.431 525.446 128.629C524.919 128.827 524.653 129.414 524.851 129.941L524.851 129.942L524.852 129.944L524.852 129.948C524.853 129.955 524.854 129.968 524.852 129.99C524.849 130.035 524.834 130.11 524.791 130.217C524.702 130.438 524.528 130.714 524.27 131.025C523.755 131.644 523.047 132.233 522.555 132.579C522.095 132.903 521.985 133.539 522.309 133.999C522.632 134.459 523.268 134.569 523.728 134.245C524.124 133.967 524.64 133.556 525.138 133.075C528.287 135.211 533.402 138.167 538.342 140.696C540.868 141.99 543.363 143.179 545.54 144.095C547.692 145 549.614 145.673 550.963 145.882Z" fill="#B98E0C"/>
<path d="M1136.5 329.5C1190.89 295.35 1300.42 251.55 1338.37 333.509C1367.76 397 1314.53 452.04 1234.2 508.861C1172.5 552.5 1148.5 621 1184.5 695.5C1220.5 770 1299 809 1471.5 818" stroke="#1A62C6" stroke-width="39"/>
<path d="M1142.05 369.196C1143.16 357.819 1148 347 1156.91 339.537L1132.83 309.028L1111.47 320.383C1109.46 318.96 1103.99 317.041 1098.18 320.745C1085.99 328.76 1094.47 336.212 1096.61 338.814C1090.98 349.309 1097.55 351.79 1102.33 353.729C1099.42 355.286 1085.48 364.235 1084.82 372.822C1084.17 381.41 1095.83 386.411 1103.6 378.517C1109.81 372.201 1123.47 359.655 1129.53 354.171C1128.97 355.466 1127.28 360.615 1124.96 370.843C1122.06 383.629 1140.67 383.418 1142.05 369.196Z" fill="#1A62C6"/>
<path d="M1108.35 346.768C1113.26 346.142 1122.25 342.785 1118.94 334.364C1115.64 325.944 1102.47 333.434 1096.29 338.231" stroke="#043478" stroke-width="2.10875" stroke-linecap="round"/>
<path d="M1111.5 320.024C1114.18 320.837 1118.55 324.387 1114.7 330.638" stroke="#043478" stroke-width="2.10875" stroke-linecap="round"/>
<path d="M150.012 57.6501C163.356 49.2209 168.922 31.0559 169.861 23.1938C167.667 22.3312 164.265 20.6134 161.106 19.3713C159.551 31.8285 148.032 47.7886 142.926 54.0118C143.65 54.4234 145.115 55.4202 150.012 57.6501Z" fill="#A6052C"/>
<path d="M1404.1 237.979C1398.84 234.027 1395.38 226.671 1393.48 220.866C1392.31 217.293 1389.95 214.126 1386.54 212.548C1383.1 210.956 1379.1 209.143 1376.31 207.973C1370.61 205.584 1347.41 188.054 1348.87 149.762C1350.19 115.325 1370.33 109.114 1382.59 99.5799C1385.24 97.5246 1386.9 94.5504 1388.43 91.569C1394.72 79.2737 1405.85 71.6317 1415.52 72.0022C1425.54 72.3857 1434.06 79.5057 1438.54 85.2763C1439.24 86.1762 1440.08 86.9446 1441.06 87.5359C1450.77 93.4321 1462.92 105.868 1466.88 110.146C1471.05 114.647 1485.67 129.678 1484.78 152.797C1483.79 178.807 1470.86 194.274 1464.84 201.234C1455.75 211.739 1451.92 217.381 1448.78 223.772C1445.64 230.164 1446.37 230.192 1438.11 237.835C1429.86 245.478 1413.24 244.841 1404.1 237.979Z" fill="#1A62C6"/>
<path d="M1396.43 96.5803C1395.8 96.5227 1395.2 96.3044 1394.68 95.9457C1394.16 95.587 1393.74 95.0996 1393.46 94.5282C1393.18 93.9568 1393.04 93.32 1393.07 92.6769C1393.09 92.0338 1393.28 91.4051 1393.6 90.8488C1396.77 85.5144 1403.49 76.196 1411.91 76.753C1419.86 76.8316 1427.46 79.8801 1433.26 85.3187C1436.68 88.5986 1408.16 97.5942 1396.43 96.5803Z" fill="#043478"/>
<path d="M1401.36 215.05C1400.57 215.247 1399.83 215.628 1399.21 216.161C1398.59 216.695 1398.1 217.366 1397.78 218.121C1397.45 218.876 1397.31 219.694 1397.35 220.509C1397.39 221.324 1397.63 222.114 1398.03 222.814C1400.75 227.668 1406.47 236.035 1414.24 237.33C1419.02 238.531 1424.06 238.265 1428.74 236.567C1433.42 234.869 1437.52 231.814 1440.53 227.789C1445.83 220.531 1413.82 211.729 1401.36 215.05Z" fill="#043478"/>
<path d="M1374.42 193.055C1374.42 193.055 1365.5 177.072 1372.4 167.748C1374.45 165.194 1375.97 162.254 1376.88 159.106C1377.25 157.58 1377.21 155.988 1376.76 154.5C1375.74 151.462 1374.08 148.697 1371.89 146.399C1364.53 137.886 1372.46 121.092 1372.46 121.092C1384.5 96.0102 1413.18 99.7289 1422.09 97.1582C1431 94.5876 1435.16 82.5062 1447.64 98.5891C1460.12 114.672 1472.29 120.907 1475.33 137.485C1476.42 142.232 1476.93 147.108 1476.85 152.002C1477.2 157.021 1476.73 162.08 1475.45 166.972C1471.63 183.472 1462.33 190.649 1450.76 208.081C1439.2 225.514 1434.38 213.619 1425.38 212.007C1416.38 210.396 1387.95 216.902 1374.42 193.055ZM1400.08 110.998C1392.87 112.386 1384.35 114.814 1379.71 121.107C1377.58 124.186 1376.39 127.823 1376.28 131.555C1376.18 135.286 1377.17 138.945 1379.14 142.066C1380.82 145.297 1383.69 147.714 1387.14 148.81C1396.03 151.749 1409.7 152.035 1416.27 147.626C1421.2 144.315 1420.72 134.751 1420.76 129.698C1420.84 125.674 1422.43 114.247 1420.04 111.331C1416.79 107.2 1404.42 110.288 1400.08 110.998ZM1457.21 180.806C1457.63 180.35 1458.07 179.921 1458.54 179.522C1462.11 176.278 1464.88 172.223 1466.61 167.699C1468.34 163.174 1468.98 158.314 1468.47 153.526C1468.38 152.922 1468.33 152.312 1468.3 151.701C1467.79 141.912 1463.59 132.762 1456.56 126.146C1456.37 125.962 1456.18 125.766 1456.01 125.558C1453.21 122.41 1451.63 130.961 1448.29 140.384C1447.61 142.289 1446.74 144.124 1445.71 145.861C1444.35 148.298 1443.68 151.056 1443.77 153.829C1443.87 156.602 1444.71 159.282 1446.22 161.57C1447.29 163.204 1448.23 164.924 1449.03 166.713C1452.61 175.508 1454.72 183.73 1457.21 180.806ZM1424.61 164.477C1424.97 164.683 1425.36 164.805 1425.76 164.836C1426.17 164.866 1426.58 164.804 1426.96 164.654C1427.34 164.504 1427.69 164.27 1427.98 163.969C1428.26 163.667 1428.48 163.307 1428.61 162.913C1429.46 160.279 1429.85 157.522 1429.76 154.768C1429.71 154.455 1429.7 154.137 1429.73 153.821C1429.68 151.102 1429.18 148.419 1428.23 145.891C1428.08 145.509 1427.84 145.169 1427.53 144.897C1427.22 144.625 1426.86 144.428 1426.46 144.319C1426.07 144.211 1425.66 144.195 1425.25 144.271C1424.85 144.348 1424.46 144.516 1424.13 144.762C1422.62 145.607 1421.3 146.754 1420.24 148.131C1419.18 149.509 1418.4 151.088 1417.96 152.771C1417.9 153.413 1417.89 154.059 1417.92 154.701L1417.92 155.715C1417.87 156.266 1417.89 156.82 1417.98 157.364C1418.55 158.948 1419.43 160.393 1420.57 161.615C1421.71 162.836 1423.09 163.81 1424.61 164.477ZM1402.66 200.548C1407.1 200.979 1419.53 202.548 1422.5 198.105C1424.67 194.865 1422.44 183.705 1422.14 179.709C1421.75 174.654 1421.67 165.077 1416.56 162.297C1410.83 159.143 1400.33 159.786 1391.95 162.324C1388.18 163.442 1384.82 165.683 1382.3 168.754C1379.78 171.824 1378.22 175.579 1377.83 179.526C1377.56 181.876 1377.77 184.25 1378.46 186.492C1379.15 188.735 1380.3 190.797 1381.84 192.543C1386.77 198.321 1395.38 199.912 1402.66 200.548Z" fill="#043478"/>
<path d="M1396.56 196.702C1404.74 198.016 1406.95 194.211 1407.39 189.875C1407.84 185.538 1403.7 181.563 1398.16 180.997C1392.62 180.431 1387.77 183.487 1387.32 187.824C1386.88 192.161 1389.18 196.233 1396.56 196.702Z" fill="#043478"/>
<path d="M1395.24 148.014C1404.9 148.914 1405.61 145.432 1406.02 141.091C1406.42 136.751 1402.26 132.813 1396.71 132.295C1391.16 131.778 1386.34 134.877 1385.93 139.217C1385.53 143.558 1386.54 147.202 1395.24 148.014Z" fill="#043478"/>
<path d="M738 -53C768 -6.5 876.602 41 962.102 41C1020.17 41 1182.1 41 1343.6 -38" stroke="#F3BE22" stroke-width="39"/>
<path d="M343.5 960C331.9 935.6 319 920.5 309 913V926C309 926 324.5 939.5 340.5 971.5C342 966.5 341.9 966.4 343.5 960Z" fill="#043478"/>
<path fill-rule="evenodd" clip-rule="evenodd" d="M1340.08 1072.72C1352.28 1041.13 1347.1 1010.02 1337.48 986.191C1333.94 977.402 1328.9 969.248 1322.42 962.33C1309.95 949.024 1296.2 940.26 1286.25 935.302C1266.88 925.638 1204.64 922 1171.9 920.086C1161.44 919.475 1154 919.04 1151.92 918.64C1143.59 917.041 1153.07 903.834 1162.3 895.165L1162.32 895.148L1162.79 894.703L1163.18 894.335C1166.54 891.042 1168.79 886.794 1169.63 882.157C1170.47 877.52 1169.87 872.713 1167.91 868.377C1167.15 866.621 1164.84 862.911 1162.81 861.084C1161.11 859.562 1159.78 857.943 1158.19 856.01C1156.08 853.452 1153.53 850.345 1149.08 846.191C1141.19 827.287 1131.6 821.212 1131.6 821.212C1095 791.843 1055.52 815.702 1046.49 827.629C1037.47 839.556 1035.45 841.609 1035.45 841.609C1009.42 859.624 1023.82 879.13 1028.68 884.907C1032.48 889.477 1040.72 917.012 1032.19 919.572C978.23 935.906 899.158 955.896 864.007 911.291C853.319 897.225 847.437 876.734 846.047 865.617C845.624 858.536 846.587 851.443 848.906 844.741C851.419 837.479 855.455 830.874 860.731 825.348C862.436 823.562 865.314 824.088 867.68 824.791V824.791C868.208 824.949 868.809 824.941 869.345 824.813C869.391 824.802 869.437 824.791 869.482 824.78C870.334 824.572 871.088 824.087 871.618 823.389C874.297 819.864 878.202 812.804 880.337 810.032C884.707 804.362 887.106 802.815 891.064 799.188C896.575 794.138 896.519 794.181 902.338 788.691C909.938 782.769 911.469 781.807 914.793 778.262C915.499 777.695 916.063 776.974 916.443 776.153V776.153C917.201 774.516 916.966 772.54 916.017 771.006C911.692 764.019 896.16 765.87 890.995 767.217C884.195 768.972 879.016 771.537 870.765 775.546C860.373 780.566 852.563 785.616 844.787 795.897C834.446 812.315 826.371 824.89 821.213 847.733C821.228 849.023 820.667 850.63 820.678 851.967L820.678 851.984C820.687 852.965 820.695 853.957 820.705 854.959C819.921 874.364 820.092 891.146 824.918 903.728C851.083 971.428 901.482 975.303 919.826 976.718C922.03 976.888 923.769 977.022 924.946 977.227C931.108 978.303 954.629 978.378 976.038 978.447L976.041 978.447L976.042 978.447C995.037 978.508 1012.37 978.563 1014.43 979.308C1018.83 980.892 1018.18 991.294 1012.44 995.214C1010.04 996.859 1005.63 997.99 1000.43 997.896C994.459 997.789 988.656 999.027 982.815 1000.28C982.302 1000.39 981.794 1000.51 981.294 1000.63C978.077 1001.42 973.728 1002.29 971.496 1004.74C969.336 1007.11 968.865 1008.56 967.588 1011.5C964.447 1018.74 962.354 1022.82 958.465 1033.93C956.596 1044.35 952.477 1050.89 948.516 1053.19C944.918 1055.28 936.513 1055.24 926.789 1055.2C912.697 1055.15 895.834 1055.08 886.817 1061.45C875.219 1068.49 886.541 1083.3 886.541 1083.3C886.541 1083.3 891.298 1090.15 900.538 1095.02C906.439 1098.13 913.467 1097.9 921.126 1097.65C925.461 1097.51 929.997 1097.36 934.645 1097.8C939.967 1098.31 944.842 1099.47 949.574 1100.58L949.577 1100.58C956.281 1102.17 962.702 1103.69 969.705 1103.22C980.761 1102.48 991.597 1080.9 995.434 1073.26C995.743 1072.64 996.007 1072.12 996.221 1071.7C996.4 1071.35 996.59 1071.03 996.789 1070.72C1000.36 1061.35 1005.14 1052.55 1006.21 1055.66C1007.76 1060.19 1011.62 1070.34 1014.72 1078C1014.8 1078.14 1014.88 1078.29 1014.97 1078.43C1015.09 1078.65 1015.22 1078.87 1015.35 1079.1L1015.51 1079.39L1015.52 1079.4C1018.34 1084.35 1021.54 1089.98 1030.37 1096.51C1043.82 1106.48 1035.63 1112.46 1035.63 1112.46C995.757 1126.4 984.208 1148.18 996.735 1155.53C1004.96 1160.04 1012.01 1166.41 1017.31 1174.12C1017.72 1174.85 1018.34 1176.37 1019.13 1178.26C1021.25 1183.39 1024.51 1191.27 1027.5 1193.41C1039.64 1203.35 1050.45 1208.86 1059.32 1202.59C1068.18 1196.32 1059.45 1166.75 1058.7 1164.65C1057.95 1162.54 1057.95 1161.19 1060.91 1160.15C1063.88 1159.1 1072.43 1153.76 1081.95 1142.99C1087.56 1136.66 1089.85 1125.15 1092.29 1112.85C1094 1104.25 1095.79 1095.26 1098.85 1087.38C1101.85 1079.63 1105.74 1074.08 1109.83 1068.23C1115.84 1059.64 1122.28 1050.43 1127 1032.74C1134.95 1003.01 1143.32 990.914 1149.14 985.297C1154.96 979.68 1166.24 973.306 1187.14 970.935C1190.01 970.61 1193.77 969.919 1198.22 969.104C1226.17 963.977 1280.98 953.923 1308.25 998.851C1312.95 1006.37 1316.6 1014.48 1319.11 1022.95C1322.82 1034.52 1322.43 1046.94 1317.98 1058.11L1317.82 1058.34C1316.44 1061.7 1314.62 1064.85 1312.43 1067.71C1307.63 1064.02 1302.28 1060.36 1298.6 1065.03C1292.57 1080.82 1292.76 1092.25 1267.05 1111.43C1262.57 1114.77 1259.92 1121.13 1264.77 1123.9C1264.96 1124.02 1265.2 1124.11 1265.42 1124.15C1295.73 1129.88 1323.74 1115.04 1340.08 1072.72Z" fill="#F3BE22"/>
<path d="M1042.08 847.037C1042.06 846.471 1041.9 845.92 1041.61 845.434C1041.32 844.949 1040.91 844.544 1040.41 844.259C1039.92 843.973 1039.36 843.816 1038.78 843.801C1038.2 843.786 1037.63 843.914 1037.11 844.173C1032.16 846.696 1023.43 852.157 1023.44 859.722C1023.05 866.837 1025.33 873.812 1029.86 879.319C1032.59 882.572 1042.3 857.584 1042.08 847.037Z" fill="#B98E0C"/>
<path d="M1147.75 858.347C1147.98 857.654 1148.36 857.02 1148.87 856.494C1149.39 855.969 1150.01 855.568 1150.71 855.323C1151.4 855.077 1152.14 854.995 1152.87 855.082C1153.6 855.169 1154.29 855.423 1154.89 855.824C1159.07 858.544 1166.23 864.145 1166.93 871.173C1167.73 875.512 1167.2 880.009 1165.4 884.094C1163.61 888.18 1160.64 891.672 1156.86 894.129C1150.06 898.445 1144.06 869.302 1147.75 858.347Z" fill="#B98E0C"/>
<path d="M1080.03 868.369C1081.53 867.777 1081.47 863.063 1077.13 856.824C1072.79 850.586 1060.78 853.945 1058.71 854.971C1056.64 855.996 1056.23 862.209 1056.04 864.498C1056.01 864.824 1056.07 865.15 1056.23 865.439C1056.38 865.728 1056.61 865.967 1056.89 866.13C1061.22 868.745 1078.65 868.913 1080.03 868.369Z" fill="#B98E0C"/>
<path d="M1104.7 858.28C1103.11 858.908 1102.44 863.942 1102.16 866.716C1102.08 867.441 1102.25 868.168 1102.64 868.778C1103.04 869.388 1103.63 869.845 1104.33 870.075C1111.47 871.705 1118.83 872.225 1126.17 871.618C1127.67 871.026 1127.61 866.312 1123.27 860.073C1118.93 853.834 1106.95 857.182 1104.7 858.28Z" fill="#B98E0C"/>
<path d="M1129.65 832.97C1129.65 832.97 1115.88 824.062 1107.13 829.692C1104.73 831.375 1102.01 832.566 1099.14 833.194C1097.76 833.435 1096.33 833.303 1095.03 832.813C1092.37 831.728 1090 830.083 1088.07 827.99C1080.88 820.905 1065.4 827.02 1065.4 827.02C1042.26 836.33 1043.92 862.195 1041.1 870.016C1038.28 877.836 1027.23 880.851 1040.89 892.952C1054.55 905.053 1059.41 916.304 1074.06 919.992C1078.25 921.244 1082.58 921.984 1086.96 922.194V922.194C1091.43 922.804 1095.98 922.677 1100.43 921.818C1115.41 919.359 1122.37 911.458 1138.64 902.13C1154.91 892.802 1144.55 887.8 1143.63 879.656C1142.72 871.513 1150.19 846.467 1129.65 832.97ZM1054.76 851.136C1056.42 844.775 1059.09 837.29 1064.99 833.508C1067.87 831.781 1071.19 830.926 1074.53 831.053C1077.88 831.179 1081.09 832.28 1083.77 834.217C1086.56 835.915 1088.56 838.623 1089.33 841.769C1091.45 849.891 1090.9 862.136 1086.58 867.752C1083.33 871.974 1074.8 870.985 1070.28 870.73C1066.68 870.563 1056.36 871.317 1053.89 869.008C1050.39 865.863 1053.87 854.979 1054.76 851.136ZM1113.87 906.312C1113.44 906.654 1113.03 907.024 1112.64 907.418C1109.53 910.427 1105.74 912.668 1101.6 913.951C1097.45 915.233 1093.06 915.521 1088.81 914.79C1088.28 914.677 1087.73 914.59 1087.19 914.532C1078.46 913.506 1070.52 909.214 1065.02 902.544C1064.86 902.356 1064.7 902.179 1064.52 902.012C1061.87 899.326 1069.61 898.413 1078.23 895.975C1079.98 895.476 1081.67 894.808 1083.28 893.981C1085.54 892.912 1088.05 892.475 1090.52 892.718C1093 892.961 1095.34 893.875 1097.3 895.359C1098.7 896.411 1100.19 897.351 1101.74 898.171C1109.4 901.889 1116.63 904.254 1113.87 906.312V906.312ZM1101.16 876.202C1101.33 876.527 1101.41 876.885 1101.42 877.25C1101.42 877.615 1101.34 877.978 1101.19 878.311C1101.03 878.645 1100.8 878.941 1100.51 879.178C1100.23 879.415 1099.89 879.587 1099.53 879.681C1097.13 880.288 1094.64 880.475 1092.18 880.234C1091.9 880.178 1091.62 880.151 1091.33 880.153C1088.9 879.956 1086.53 879.348 1084.33 878.356C1084 878.192 1083.71 877.957 1083.48 877.667C1083.26 877.377 1083.1 877.04 1083.03 876.681C1082.95 876.322 1082.96 875.95 1083.05 875.592C1083.15 875.234 1083.32 874.9 1083.56 874.615C1084.4 873.317 1085.5 872.199 1086.8 871.331C1088.09 870.464 1089.55 869.864 1091.08 869.569C1091.66 869.551 1092.24 869.577 1092.81 869.647L1093.72 869.704C1094.21 869.688 1094.71 869.736 1095.19 869.849C1096.57 870.455 1097.81 871.33 1098.84 872.421C1099.86 873.512 1100.66 874.797 1101.16 876.202ZM1134.55 858.626C1134.68 862.621 1135.51 873.874 1131.37 876.272C1128.34 878.019 1118.49 875.376 1114.93 874.879C1110.43 874.235 1101.87 873.605 1099.68 868.869C1097.2 863.558 1098.38 854.204 1101.14 846.856C1102.36 843.555 1104.56 840.678 1107.46 838.604C1110.35 836.53 1113.8 835.355 1117.35 835.234C1119.47 835.125 1121.58 835.456 1123.55 836.204C1125.51 836.953 1127.29 838.103 1128.76 839.58C1133.64 844.325 1134.56 852.121 1134.71 858.668L1134.55 858.626Z" fill="#B98E0C"/>
<path d="M1100.12 903.755C1099.42 904.033 1096.28 904.051 1091.51 904.241C1090.49 904.241 1088.18 904.113 1087.17 903.925C1082.67 903.006 1079.51 902.424 1078.83 902.138C1078.15 901.853 1076.99 901.325 1079.06 903.707C1081.12 906.089 1082.93 907.922 1085.5 908.869C1087.13 909.47 1089.54 909.759 1091.27 909.46C1094.1 908.987 1097.55 907.392 1099.81 905.675C1102.08 903.958 1101.35 903.547 1100.12 903.755Z" fill="#B98E0C"/>
<path d="M184.5 1169.18C230 1076.68 229.5 837 -49.5 945.5" stroke="#F3BE22" stroke-width="39"/>
<path d="M145.5 964C145 938.5 153 923.5 156 917C146.667 911.833 126.5 901.4 120.5 901C112.5 915.4 108.5 936.667 107.5 945.5C112.833 947.833 127.9 954.8 145.5 964Z" fill="#1A62C6"/>
<path d="M161 921.5L155.5 918C147.5 931.2 145.5 950.167 145.5 958C146.333 958.667 148.5 960.5 150.5 962.5C150.1 944.9 157.333 927.833 161 921.5Z" fill="#B98E0C"/>
<path fill-rule="evenodd" clip-rule="evenodd" d="M-207.609 188.766C-182.394 165.807 -151.296 159.338 -125.423 159.688C-115.88 159.817 -106.389 161.576 -97.5345 165.14C-80.5012 171.995 -67.2647 181.711 -58.983 189.255C-42.8557 203.915 -16.7685 261.023 -3.04624 291.062C1.3364 300.656 4.45799 307.49 5.59065 309.297C10.1247 316.53 19.0714 302.821 23.848 290.998L23.8573 290.975L24.1027 290.368L24.3053 289.867C26.1753 285.518 29.3441 281.859 33.39 279.377C37.436 276.895 42.1673 275.708 46.9541 275.974C48.8786 276.045 53.2029 276.861 55.6604 278.108C57.7062 279.145 59.7122 279.807 62.1063 280.596C65.2747 281.641 69.1228 282.91 74.6426 285.572C95.2654 286.095 104.459 292.879 104.459 292.879C145.365 316.544 137.346 362.301 129.437 375.121C121.528 387.941 120.336 390.583 120.336 390.583C112.905 421.583 89.344 415.162 82.1533 412.713C76.4754 410.802 47.6233 413.097 48.3294 422.044C52.649 478.65 62.6851 560.166 117.366 576.92C134.465 581.83 155.845 579.889 166.789 577.143C173.591 574.962 179.899 571.474 185.346 566.855C191.248 561.851 195.979 555.655 199.246 548.689C200.301 546.438 198.759 543.927 197.237 541.962V541.962C196.897 541.524 196.686 540.957 196.61 540.408C196.604 540.36 196.597 540.313 196.591 540.266C196.476 539.391 196.657 538.506 197.119 537.754C199.453 533.956 204.658 527.718 206.482 524.703C210.214 518.536 210.793 515.72 212.756 510.682C215.49 503.67 215.47 503.737 218.505 496.274C221.296 486.982 221.641 485.194 223.758 480.782C224.033 479.913 224.505 479.12 225.137 478.465V478.465C226.398 477.157 228.339 476.657 230.125 476.99C238.26 478.505 242.18 493.762 242.797 499.101C243.626 506.124 243.105 511.921 242.347 521.128C241.419 532.713 239.523 541.885 232.703 552.93C221.056 568.619 212.191 580.781 192.625 593.944C191.409 594.4 190.104 595.512 188.845 595.988L188.828 595.995C187.905 596.344 186.97 596.698 186.026 597.053C168.094 604.858 152.275 610.811 138.705 610.863C65.6148 610.959 43.6186 565.055 35.6084 548.348C34.646 546.341 33.8864 544.756 33.2654 543.726C30.0104 538.333 21.3716 516.278 13.5088 496.204L13.5079 496.201L13.5072 496.199C6.5309 478.389 0.165699 462.138 -1.28589 460.47C-4.37369 456.923 -13.9024 461.322 -15.4939 468.133C-16.1617 470.992 -15.6191 475.537 -13.6371 480.386C-11.3607 485.955 -10.4084 491.854 -9.45891 497.795C-9.37565 498.316 -9.29981 498.835 -9.23337 499.35C-8.80626 502.659 -8.03863 507.06 -9.52522 510.047C-10.9639 512.938 -12.1477 513.907 -14.4445 516.177C-20.0961 521.763 -23.1642 525.213 -32.1822 532.913C-41.2786 538.461 -45.9202 544.712 -46.6361 549.268C-47.2866 553.407 -44.1932 561.286 -40.6143 570.4C-35.4275 583.61 -29.2211 599.416 -31.9137 610.201C-34.3011 623.655 -52.3293 618.42 -52.3293 618.42C-52.3293 618.42 -60.4931 616.449 -68.4319 609.549C-73.5019 605.143 -75.8451 598.46 -78.3987 591.177C-79.8437 587.056 -81.3564 582.743 -83.4682 578.541C-85.8862 573.731 -88.7439 569.574 -91.5183 565.539L-91.5198 565.537C-95.4502 559.82 -99.2146 554.345 -101.325 547.6C-104.657 536.95 -88.3445 518.916 -82.5681 512.53C-82.1028 512.016 -81.7057 511.577 -81.3929 511.224C-81.1326 510.93 -80.8947 510.633 -80.6792 510.333C-73.1853 503.565 -66.664 495.876 -69.9707 496.007C-74.7883 496.199 -85.7259 496.271 -94.0461 496.153C-94.2097 496.127 -94.3737 496.102 -94.5383 496.077C-94.7922 496.038 -95.0474 496 -95.3043 495.962L-95.6413 495.912L-95.6495 495.911C-101.32 495.069 -107.775 494.111 -117.127 488.205C-131.38 479.203 -134.016 489.072 -134.016 489.072C-132.573 531.583 -148.822 550.362 -160.282 541.277C-167.507 535.199 -176.062 530.898 -185.235 528.733C-186.061 528.617 -187.716 528.58 -189.776 528.534C-195.37 528.409 -203.954 528.219 -207.054 526.195C-220.811 518.415 -229.915 510.269 -227.258 499.666C-224.601 489.064 -193.661 486.487 -191.412 486.422C-189.163 486.357 -187.897 485.875 -187.998 482.706C-188.099 479.537 -186.195 469.565 -179.552 456.703C-175.645 449.137 -165.675 442.795 -155.023 436.019C-147.569 431.278 -139.78 426.324 -133.5 420.588C-127.32 414.944 -123.518 409.27 -119.518 403.3C-113.644 394.533 -107.343 385.129 -92.4567 374.249C-67.4346 355.961 -59.1288 343.699 -55.9765 336.186C-52.8241 328.673 -50.9469 315.767 -56.3352 295.28C-57.0744 292.469 -57.7976 288.682 -58.6513 284.213C-64.0199 256.103 -74.5474 200.981 -126.659 191.747C-135.433 190.075 -144.376 189.597 -153.241 190.326C-165.453 191.053 -176.969 195.952 -185.841 204.193L-185.995 204.429C-188.648 206.952 -190.942 209.802 -192.828 212.901C-187.618 216.066 -182.229 219.753 -185.274 224.908C-197.901 236.326 -208.701 240.304 -217.344 271.432C-218.849 276.851 -223.859 281.664 -228.226 278.121C-228.402 277.978 -228.572 277.785 -228.692 277.593C-245.117 251.224 -241.39 219.524 -207.609 188.766Z" fill="#EC0B43"/>
<path d="M112.825 386.337C113.362 386.145 113.938 386.094 114.5 386.19C115.062 386.286 115.591 386.525 116.04 386.885C116.488 387.246 116.84 387.716 117.064 388.252C117.288 388.788 117.377 389.373 117.322 389.952C116.759 395.524 114.81 405.705 107.705 408.454C101.168 411.415 93.7883 411.812 86.9694 409.568C82.919 408.187 102.842 389.969 112.825 386.337Z" fill="#B00A33"/>
<path d="M63.713 291.243C64.2822 290.782 64.7382 290.191 65.0443 289.518C65.3504 288.844 65.4981 288.108 65.4755 287.367C65.453 286.625 65.2608 285.901 64.9145 285.25C64.5681 284.6 64.0772 284.042 63.4812 283.622C59.4039 280.686 51.5404 276.013 44.6854 277.911C40.3221 278.744 36.2943 280.881 33.111 284.052C29.9277 287.222 27.7318 291.284 26.8007 295.724C25.2259 303.68 54.7747 298.705 63.713 291.243Z" fill="#B00A33"/>
<path d="M78.9731 358.476C78.9829 356.853 83.4295 355.19 90.8671 356.991C98.3046 358.791 99.525 371.289 99.3168 373.607C99.1086 375.925 93.4254 378.575 91.3467 379.59C91.0509 379.735 90.7211 379.793 90.3949 379.756C90.0686 379.719 89.7593 379.588 89.5021 379.38C85.4727 376.274 78.9642 359.967 78.9731 358.476Z" fill="#B00A33"/>
<path d="M79.4595 331.64C79.4492 333.363 74.9654 335.821 72.4641 337.098C71.8125 337.437 71.0679 337.541 70.3514 337.393C69.635 337.244 68.9889 336.851 68.5182 336.279C64.3898 330.175 61.2179 323.449 59.1169 316.344C59.1266 314.72 63.5732 313.057 71.0108 314.858C78.4484 316.659 79.6689 329.123 79.4595 331.64Z" fill="#B00A33"/>
<path d="M94.1318 298.994C94.1318 298.994 107.513 308.683 105.411 318.941C104.708 321.811 104.579 324.797 105.035 327.719C105.313 329.108 105.955 330.394 106.891 331.441C108.877 333.541 111.288 335.173 113.954 336.221C123.223 340.385 123.123 357.149 123.123 357.149C122.81 382.262 97.9242 390.13 91.6087 395.625C85.2931 401.121 86.4873 412.591 70.1513 404.177C53.8154 395.763 41.4798 395.291 32.681 382.88C29.9814 379.41 27.7093 375.613 25.9158 371.575V371.575C23.7154 367.602 22.1763 363.282 21.3616 358.791C18.213 343.83 23.0948 334.416 25.9271 315.747C28.7595 297.077 37.2291 304.981 45.2083 302.875C53.1875 300.769 73.9779 284.626 94.1318 298.994ZM104.357 375.922C109.723 372.045 115.778 366.813 117.18 359.897C117.753 356.565 117.346 353.135 116.009 350.042C114.673 346.949 112.468 344.332 109.674 342.523C107.063 340.522 103.794 339.635 100.557 340.05C92.1631 341.027 80.8636 345.995 77.1675 352.102C74.3873 356.691 78.4218 364.336 80.3075 368.489C81.7773 371.811 84.8264 381.769 87.894 383.245C92.1235 385.391 101.073 378.155 104.357 375.922ZM31.0246 340.527C30.861 341.058 30.6631 341.577 30.4324 342.081C28.7404 346.097 28.0171 350.47 28.3235 354.831C28.6298 359.192 29.9569 363.414 32.1926 367.139C32.494 367.601 32.7722 368.078 33.026 368.569C37.1673 376.388 44.0887 382.278 52.3578 385.019C52.5892 385.094 52.8158 385.184 53.0363 385.289C56.5247 386.8 54.5625 379.201 53.7097 370.217C53.5431 368.399 53.5541 366.567 53.7425 364.751C53.9236 362.241 53.4213 359.729 52.2914 357.494C51.1615 355.259 49.4482 353.388 47.3417 352.089C45.8445 351.159 44.4214 350.109 43.0858 348.949C36.8059 343.113 31.9514 337.187 31.0246 340.527V340.527ZM63.9213 341.487C63.5563 341.452 63.1884 341.502 62.8443 341.631C62.5003 341.76 62.1888 341.967 61.9327 342.235C61.6766 342.504 61.4823 342.827 61.364 343.182C61.2457 343.537 61.2064 343.914 61.249 344.287C61.5553 346.766 62.2863 349.171 63.4084 351.39C63.5616 351.631 63.6903 351.887 63.7925 352.155C64.862 354.364 66.2961 356.367 68.0316 358.078C68.306 358.33 68.6323 358.516 68.9866 358.622C69.3408 358.729 69.7139 358.752 70.0781 358.69C70.4423 358.629 70.7884 358.484 71.0907 358.267C71.393 358.051 71.6438 357.767 71.8244 357.438C72.7355 356.173 73.3828 354.73 73.7262 353.199C74.0697 351.668 74.1019 350.081 73.8209 348.537C73.6273 347.988 73.3923 347.455 73.118 346.943L72.7344 346.112C72.5688 345.64 72.3428 345.193 72.0623 344.783C70.9891 343.705 69.7159 342.859 68.3177 342.293C66.9195 341.727 65.4247 341.453 63.9213 341.487ZM68.2607 303.742C64.4637 305.078 53.5951 308.392 52.854 313.158C52.315 316.634 58.3859 324.921 60.148 328.079C62.391 332.068 66.1007 339.876 71.345 340.206C77.2365 340.606 85.5864 336.084 91.4796 330.818C94.1346 328.47 96.0337 325.356 96.9272 321.885C97.8208 318.413 97.6671 314.746 96.4864 311.366C95.8173 309.338 94.7381 307.477 93.3192 305.905C91.9002 304.332 90.1732 303.083 88.2508 302.239C82.0178 299.385 74.3632 301.36 68.1643 303.609L68.2607 303.742Z" fill="#B00A33"/>
<path d="M38.4322 352.5C38.4277 353.262 39.5534 356.214 41.1129 360.762C41.4863 361.724 42.448 363.846 42.9898 364.72C45.4924 368.611 47.1922 371.371 47.7072 371.905C48.2221 372.438 49.1395 373.332 46.1506 372.26C43.1616 371.187 40.7832 370.161 38.9578 368.091C37.7987 366.778 36.6514 364.626 36.302 362.893C35.7146 360.062 35.9544 356.24 36.7422 353.491C37.5301 350.742 38.1805 351.272 38.4322 352.5Z" fill="#B00A33"/>
<path d="M357.5 34C354 27.5 348.5 14.5 346 -4.5C344.667 -3.66667 339.7 -1.2 338.5 0C340 12.5 346.333 34.3333 351.5 37.5C351.833 37.3333 353.5 36.8 357.5 34Z" fill="#A6052C"/>
</g>
<defs>
<clipPath id="clip0_19_74">
<rect width="1440" height="960" fill="white"/>
</clipPath>
</defs>
</svg>
